<svg width="143" height="30" viewBox="0 0 143 30" fill="none" xmlns="http://www.w3.org/2000/svg">
<path d="M45.7005 13.4098L39.7843 6.09778H37.3711V23.9022H39.9201V10.0491L45.4574 16.9314H45.9289L50.5596 11.1093L51.5104 9.98734V6.18638L45.7005 13.4098Z" fill="#113E68"/>
<path d="M16.2074 19.7856V22.5896C14.3384 23.6093 12.1804 24.1192 9.7332 24.1192C7.74565 24.1192 6.05852 23.7193 4.67385 22.9212C3.28884 22.1221 2.19272 21.0223 1.38582 19.62C0.578236 18.2183 0.175293 16.7013 0.175293 15.0701C0.175293 12.4787 1.09897 10.2993 2.94667 8.53209C4.79436 6.76485 7.07385 5.88123 9.78446 5.88123C11.6535 5.88123 13.7307 6.36971 16.0167 7.34635V10.0865C13.9347 8.89701 11.9 8.30227 9.9121 8.30227C7.87261 8.30227 6.17971 8.94589 4.83306 10.2331C3.48641 11.5204 2.8136 13.1325 2.8136 15.0698C2.8136 17.0237 3.47589 18.6297 4.80115 19.8875C6.12675 21.1452 7.82169 21.7738 9.8863 21.7738C12.0443 21.7738 14.1516 21.1109 16.2074 19.7856Z" fill="#113E68"/>
<path d="M25.6775 6.04712H27.4685L35.452 23.9534H32.8429L30.4701 18.6772H22.8739L20.6494 23.9534H18.0298L25.6775 6.04712ZM29.4225 16.4089L26.5496 9.95943L23.8859 16.4089H29.4225Z" fill="#113E68"/>
<path d="M85.722 5.86829C88.4727 5.86829 90.7633 6.73901 92.593 8.48079C94.4228 10.2226 95.3379 12.406 95.3379 15.0314C95.3379 17.6571 94.4143 19.8297 92.5676 21.5504C90.7209 23.2712 88.3922 24.1317 85.5821 24.1317C82.899 24.1317 80.6637 23.2712 78.876 21.5504C77.0888 19.83 76.1953 17.6745 76.1953 15.0827C76.1953 12.4236 77.0952 10.2226 78.8954 8.48079C80.6956 6.73901 82.971 5.86829 85.722 5.86829ZM85.8238 8.29001C83.7867 8.29001 82.1121 8.92719 80.8005 10.2015C79.4895 11.4759 78.8333 13.1033 78.8333 15.0827C78.8333 17.0027 79.4911 18.5998 80.8066 19.8742C82.1227 21.1492 83.7694 21.7864 85.7475 21.7864C87.7336 21.7864 89.3909 21.1366 90.7192 19.8365C92.0479 18.5364 92.7119 16.9178 92.7119 14.9805C92.7119 13.0944 92.0479 11.5078 90.7192 10.2209C89.3912 8.93363 87.7591 8.29001 85.8238 8.29001Z" fill="#16ABFF"/>
<path d="M104.501 23.9022H98.4731V6.09778H103.138C104.608 6.09778 105.755 6.29535 106.579 6.69014C107.403 7.08528 108.032 7.62943 108.466 8.3216C108.898 9.01444 109.115 9.81489 109.115 10.724C109.115 12.4746 108.21 13.7279 106.401 14.4835C107.7 14.7303 108.735 15.2656 109.504 16.0892C110.273 16.9141 110.657 17.8992 110.657 19.0462C110.657 19.9553 110.424 20.7666 109.957 21.4809C109.489 22.1944 108.803 22.7763 107.898 23.2267C106.993 23.6768 105.861 23.9022 104.501 23.9022ZM103.214 8.36641H101.023V13.7194H102.717C104.077 13.7194 105.044 13.46 105.617 12.9417C106.19 12.424 106.477 11.7522 106.477 10.928C106.477 9.22016 105.389 8.36641 103.214 8.36641ZM103.405 15.9877H101.022V21.6333H103.533C104.926 21.6333 105.871 21.5253 106.368 21.3084C106.865 21.0915 107.265 20.7541 107.566 20.2955C107.868 19.8365 108.019 19.3439 108.019 18.8171C108.019 18.2733 107.859 17.777 107.541 17.3258C107.222 16.8757 106.77 16.5403 106.184 16.3193C105.597 16.098 104.672 15.9877 103.405 15.9877Z" fill="#16ABFF"/>
<path d="M113.193 6.09778H115.742V23.9022H113.193V6.09778Z" fill="#16ABFF"/>
<path d="M119.693 6.09778H122.242V21.5824H130.258V23.9022H119.693V6.09778Z" fill="#16ABFF"/>
<path d="M132.489 6.11072H142.583V8.37935H135.038V13.8084H142.328V16.0899H135.038V21.6208H142.824V23.8897H132.488V6.11072H132.489Z" fill="#16ABFF"/>
<path d="M71.4354 6.09778L65.5542 13.4101L59.6584 6.1229L59.6577 6.12256V9.91843L59.658 9.91911L59.7609 10.0335L59.7741 10.0488L65.3115 16.9307H65.783L71.2565 10.0488V23.9022H73.8184V6.09778H71.4354Z" fill="#16ABFF"/>
<path d="M56.5401 1.01839C56.5401 0.458274 56.1124 0 55.5897 0C55.0669 0 54.6392 0.458274 54.6392 1.01839V28.9816C54.6392 29.5414 55.0669 30 55.5897 30C56.1124 30 56.5401 29.5414 56.5401 28.9816V1.01839Z" fill="#113E68"/>
</svg>
