<svg width="143" height="31" viewBox="0 0 143 31" fill="none" xmlns="http://www.w3.org/2000/svg">
<path d="M45.7015 13.9098L39.7853 6.59778H37.3721V24.4022H39.9211V10.5491L45.4584 17.4314H45.9299L50.5605 11.6093L51.5114 10.4873V6.68638L45.7015 13.9098Z" fill="white"/>
<path d="M16.2079 20.2856V23.0896C14.3388 24.1093 12.1809 24.6192 9.73369 24.6192C7.74613 24.6192 6.05901 24.2193 4.67434 23.4212C3.28933 22.6221 2.19321 21.5223 1.38631 20.12C0.578724 18.7183 0.175781 17.2013 0.175781 15.5701C0.175781 12.9787 1.09946 10.7993 2.94715 9.03209C4.79485 7.26485 7.07434 6.38123 9.78495 6.38123C11.654 6.38123 13.7312 6.86971 16.0171 7.84635V10.5865C13.9352 9.39701 11.9005 8.80227 9.91259 8.80227C7.87309 8.80227 6.18019 9.44589 4.83355 10.7331C3.4869 12.0204 2.81409 13.6325 2.81409 15.5698C2.81409 17.5237 3.47638 19.1297 4.80164 20.3875C6.12724 21.6452 7.82218 22.2738 9.88679 22.2738C12.0448 22.2738 14.1521 21.6109 16.2079 20.2856Z" fill="white"/>
<path d="M25.678 6.54712H27.469L35.4525 24.4534H32.8434L30.4706 19.1772H22.8744L20.6499 24.4534H18.0303L25.678 6.54712ZM29.423 16.9089L26.5501 10.4594L23.8863 16.9089H29.423Z" fill="white"/>
<path d="M85.723 6.36829C88.4736 6.36829 90.7643 7.23901 92.594 8.98079C94.4237 10.7226 95.3389 12.906 95.3389 15.5314C95.3389 18.1571 94.4152 20.3297 92.5686 22.0504C90.7219 23.7712 88.3932 24.6317 85.5831 24.6317C82.9 24.6317 80.6646 23.7712 78.877 22.0504C77.0898 20.33 76.1963 18.1745 76.1963 15.5827C76.1963 12.9236 77.0962 10.7226 78.8964 8.98079C80.6965 7.23901 82.972 6.36829 85.723 6.36829ZM85.8248 8.79001C83.7877 8.79001 82.1131 9.42719 80.8014 10.7015C79.4904 11.9759 78.8343 13.6033 78.8343 15.5827C78.8343 17.5027 79.4921 19.0998 80.8075 20.3742C82.1236 21.6492 83.7704 22.2864 85.7484 22.2864C87.7346 22.2864 89.3919 21.6366 90.7202 20.3365C92.0489 19.0364 92.7128 17.4178 92.7128 15.4805C92.7128 13.5944 92.0489 12.0078 90.7202 10.7209C89.3922 9.43363 87.7601 8.79001 85.8248 8.79001Z" fill="white"/>
<path d="M104.502 24.4022H98.4736V6.59778H103.139C104.608 6.59778 105.755 6.79535 106.58 7.19014C107.404 7.58528 108.032 8.12943 108.466 8.8216C108.899 9.51444 109.116 10.3149 109.116 11.224C109.116 12.9746 108.211 14.2279 106.401 14.9835C107.701 15.2303 108.735 15.7656 109.504 16.5892C110.274 17.4141 110.658 18.3992 110.658 19.5462C110.658 20.4553 110.424 21.2666 109.957 21.9809C109.49 22.6944 108.804 23.2763 107.899 23.7267C106.994 24.1768 105.861 24.4022 104.502 24.4022ZM103.215 8.86641H101.023V14.2194H102.718C104.077 14.2194 105.044 13.96 105.617 13.4417C106.19 12.924 106.477 12.2522 106.477 11.428C106.477 9.72016 105.389 8.86641 103.215 8.86641ZM103.406 16.4877H101.023V22.1333H103.533C104.926 22.1333 105.872 22.0253 106.369 21.8084C106.866 21.5915 107.265 21.2541 107.566 20.7955C107.868 20.3365 108.019 19.8439 108.019 19.3171C108.019 18.7733 107.86 18.277 107.541 17.8258C107.223 17.3757 106.77 17.0403 106.184 16.8193C105.598 16.598 104.672 16.4877 103.406 16.4877Z" fill="white"/>
<path d="M113.193 6.59778H115.742V24.4022H113.193V6.59778Z" fill="white"/>
<path d="M119.693 6.59778H122.243V22.0824H130.259V24.4022H119.693V6.59778Z" fill="white"/>
<path d="M132.489 6.61072H142.583V8.87935H135.038V14.3084H142.328V16.5899H135.038V22.1208H142.824V24.3897H132.488V6.61072H132.489Z" fill="white"/>
<path d="M71.4358 6.59778L65.5547 13.9101L59.6589 6.6229L59.6582 6.62256V10.4184L59.6585 10.4191L59.7614 10.5335L59.7746 10.5488L65.312 17.4307H65.7835L71.257 10.5488V24.4022H73.8189V6.59778H71.4358Z" fill="white"/>
<path d="M56.5406 1.51839C56.5406 0.958274 56.1129 0.5 55.5901 0.5C55.0674 0.5 54.6396 0.958274 54.6396 1.51839V29.4816C54.6396 30.0414 55.0674 30.5 55.5901 30.5C56.1129 30.5 56.5406 30.0414 56.5406 29.4816V1.51839Z" fill="white"/>
</svg>
